first trial																																					
nRows=31																																					
nColumns=38																																					
																																					
# SIMM Motion File Header:																																					
name MVN-013																																					
datacolumns 38																																					
datarows 31																																					
otherdata 1																																					
range 0 0.499																																					
endheader																																					
time	pelvis_tilt	pelvis_list	pelvis_rotation	pelvis_tx	pelvis_ty	pelvis_tz	hip_flexion_r	hip_adduction_r	hip_rotation_r	knee_angle_r	ankle_angle_r	subtalar_angle_r	mtp_angle_r	hip_flexion_l	hip_adduction_l	hip_rotation_l	knee_angle_l	ankle_angle_l	subtalar_angle_l	mtp_angle_l	lumbar_extension	lumbar_bending	lumbar_rotation	arm_flex_r	arm_add_r	arm_rot_r	elbow_flex_r	pro_sup_r	wrist_flex_r	wrist_dev_r	arm_flex_l	arm_add_l	arm_rot_l	elbow_flex_l	pro_sup_l	wrist_flex_l	wrist_dev_l
0	24.0954	-0.2668	88.7784	-0.2501	0.7728	0.4515	25.2051	-9.4899	3.7415	29.7998	-18.4933	0.9351	0	30.4876	-2.1994	3.4458	45.2076	-10.959	3.0847	0	-6.0629	-0.4402	-1.4222	30.3195	-21.1118	8.9515	24.3044	131.9917	4.6942	22.8296	20.0918	-23.0121	-4.34	42.7272	108.2234	5.6049	13.0242
0.016	24.2065	-0.3086	88.7535	-0.2499	0.7732	0.4514	25.1667	-9.398	3.7175	29.8046	-18.7156	0.9775	0	30.3188	-2.2744	3.4444	45.1428	-10.9694	3.0846	0	-6.1195	-0.4223	-1.4063	30.2915	-21.1656	8.9295	24.3145	131.9619	4.7245	22.8296	20.0601	-23.0302	-4.3659	42.7263	108.2318	5.6083	13.0227
0.033	24.3177	-0.3505	88.7287	-0.2497	0.7736	0.4513	25.1282	-9.3061	3.6934	29.8094	-18.938	1.0203	0	30.1499	-2.3495	3.4428	45.0781	-10.9798	3.0845	0	-6.176	-0.4045	-1.3904	30.2635	-21.2195	8.9075	24.3246	131.9321	4.7549	22.8297	20.0285	-23.0484	-4.3918	42.7255	108.2401	5.6117	13.0212
0.049	24.4182	-0.3864	88.7044	-0.2494	0.774	0.4512	25.0863	-9.2219	3.6723	29.8153	-19.1389	1.0579	0	29.9998	-2.418	3.439	45.0196	-10.9903	3.085	0	-6.2291	-0.3888	-1.3753	30.2375	-21.2689	8.888	24.3364	131.9026	4.7793	22.8311	20.0005	-23.0634	-4.4153	42.7222	108.2472	5.6155	13.0189
0.066	24.5025	-0.4129	88.6799	-0.2493	0.7742	0.4512	25.0381	-9.1486	3.6562	29.8245	-19.3075	1.0873	0	29.878	-2.4774	3.4313	44.9697	-11.0016	3.0868	0	-6.2776	-0.3764	-1.3614	30.2144	-21.3116	8.8722	24.3514	131.8732	4.7928	22.8348	19.9782	-23.0729	-4.4362	42.7156	108.2537	5.6204	13.015
0.083	24.5761	-0.4335	88.6557	-0.2491	0.7745	0.4512	24.9864	-9.083	3.6431	29.835	-19.4544	1.1113	0	29.7748	-2.5303	3.4215	44.9261	-11.0131	3.0891	0	-6.3226	-0.3661	-1.3484	30.1934	-21.3498	8.8588	24.368	131.8442	4.8003	22.8398	19.9596	-23.0793	-4.4546	42.7067	108.259	5.6256	13.0102
0.099	24.6443	-0.4513	88.6336	-0.2489	0.7746	0.4511	24.9363	-9.0241	3.6295	29.8418	-19.5893	1.1332	0	29.6806	-2.5781	3.4133	44.8877	-11.0228	3.0906	0	-6.3639	-0.3572	-1.3361	30.1746	-21.3855	8.8468	24.3839	131.817	4.8115	22.8444	19.9429	-23.0869	-4.4686	42.6963	108.2601	5.63	13.0066
0.116	24.7086	-0.4671	88.6138	-0.2488	0.7748	0.4511	24.8891	-8.9718	3.6138	29.8425	-19.7145	1.1536	0	29.5924	-2.6209	3.4079	44.8548	-11.0298	3.0908	0	-6.4007	-0.3496	-1.3246	30.1581	-21.419	8.8359	24.3986	131.7926	4.8318	22.8476	19.9273	-23.0986	-4.4753	42.6835	108.2539	5.6322	13.0048
0.133	24.7676	-0.4801	88.596	-0.2486	0.775	0.4511	24.8435	-8.9261	3.5976	29.8396	-19.8276	1.1717	0	29.5131	-2.6586	3.4042	44.827	-11.0351	3.0902	0	-6.4337	-0.3433	-1.3137	30.144	-21.45	8.8263	24.4125	131.7699	4.8557	22.8504	19.9137	-23.1116	-4.4775	42.6693	108.2435	5.6334	13.0041
0.15	24.8224	-0.4918	88.58	-0.2485	0.7751	0.4511	24.8006	-8.8856	3.582	29.8359	-19.9312	1.1887	0	29.4408	-2.692	3.4024	44.8029	-11.0399	3.0889	0	-6.465	-0.3378	-1.3032	30.1316	-21.4799	8.8171	24.4244	131.7479	4.8759	22.8538	19.9026	-23.1211	-4.4812	42.6578	108.2356	5.6358	13.0037
0.166	24.8734	-0.5027	88.5662	-0.2484	0.7752	0.4511	24.7607	-8.8506	3.5673	29.8319	-20.0253	1.2052	0	29.3757	-2.7207	3.4038	44.7824	-11.0444	3.0863	0	-6.4949	-0.3332	-1.2931	30.1217	-21.5095	8.8075	24.4331	131.7267	4.8884	22.8585	19.8951	-23.1244	-4.4901	42.6502	108.2333	5.6403	13.003
0.183	24.9201	-0.5125	88.5544	-0.2483	0.7753	0.4511	24.7236	-8.8208	3.5533	29.8271	-20.1098	1.2206	0	29.3176	-2.7452	3.4073	44.7654	-11.0484	3.0831	0	-6.5231	-0.3295	-1.2833	30.1136	-21.5381	8.7983	24.4399	131.7061	4.8972	22.8637	19.8903	-23.1242	-4.5006	42.6453	108.2334	5.646	13.0026
0.2	24.9632	-0.5211	88.5436	-0.2482	0.7753	0.4511	24.6895	-8.7937	3.5407	29.822	-20.1873	1.2339	0	29.2648	-2.7677	3.41	44.7502	-11.0521	3.0806	0	-6.5503	-0.3263	-1.2739	30.1053	-21.5642	8.7913	24.4477	131.6838	4.907	22.8683	19.8863	-23.1241	-4.5075	42.6429	108.2332	5.6515	13.0031
0.216	25.0027	-0.5285	88.5332	-0.2481	0.7754	0.4511	24.6586	-8.7689	3.5297	29.8166	-20.2583	1.2443	0	29.2168	-2.7887	3.4111	44.7361	-11.0554	3.0792	0	-6.5763	-0.3235	-1.2646	30.0951	-21.5865	8.7886	24.4574	131.6572	4.9198	22.872	19.8828	-23.1253	-4.5072	42.6424	108.2323	5.6567	13.0054
0.233	25.0387	-0.5348	88.5239	-0.248	0.7754	0.4512	24.6306	-8.7469	3.5201	29.8109	-20.3224	1.2526	0	29.1741	-2.8077	3.4113	44.7237	-11.0585	3.0785	0	-6.6015	-0.3211	-1.2556	30.0847	-21.6064	8.7881	24.4683	131.629	4.9335	22.8752	19.8802	-23.1267	-4.5033	42.6445	108.231	5.6618	13.0087
0.249	25.071	-0.5409	88.5156	-0.2479	0.7755	0.4512	24.6057	-8.7263	3.5121	29.8055	-20.3806	1.2599	0	29.1363	-2.8256	3.4107	44.7124	-11.0626	3.0788	0	-6.6273	-0.3192	-1.2466	30.0766	-21.6265	8.7855	24.4809	131.604	4.9472	22.8769	19.8784	-23.1277	-4.5019	42.6509	108.2273	5.6666	13.0111
0.266	25.0993	-0.5468	88.5087	-0.2479	0.7755	0.4512	24.5846	-8.7068	3.5061	29.8007	-20.4329	1.2665	0	29.1043	-2.8428	3.4091	44.7025	-11.0685	3.0805	0	-6.6557	-0.3176	-1.2379	30.0731	-21.6483	8.7787	24.4969	131.5853	4.9604	22.8764	19.8775	-23.1277	-4.5071	42.6653	108.2204	5.6711	13.0116
0.283	25.124	-0.5523	88.5027	-0.2478	0.7755	0.4513	24.5665	-8.6887	3.5018	29.7961	-20.4793	1.272	0	29.0771	-2.8589	3.4067	44.6937	-11.0753	3.0833	0	-6.6848	-0.3163	-1.2292	30.072	-21.6703	8.7698	24.5147	131.5699	4.9735	22.8746	19.8774	-23.1273	-4.5146	42.684	108.211	5.6752	13.0113
0.299	25.1463	-0.5573	88.4976	-0.2477	0.7755	0.4513	24.5493	-8.6725	3.4986	29.791	-20.5209	1.2765	0	29.0519	-2.8735	3.4036	44.6851	-11.0814	3.0858	0	-6.7108	-0.3153	-1.2205	30.0694	-21.6913	8.7616	24.5309	131.5546	4.986	22.8732	19.8774	-23.1286	-4.5183	42.6987	108.1987	5.679	13.0112
0.316	25.1662	-0.5618	88.4934	-0.2477	0.7756	0.4513	24.5322	-8.6587	3.4965	29.7849	-20.5575	1.2797	0	29.0277	-2.8863	3.3995	44.6757	-11.0862	3.0877	0	-6.7317	-0.3144	-1.2114	30.0631	-21.7105	8.7548	24.5442	131.5383	4.9993	22.8726	19.877	-23.1332	-4.5131	42.7057	108.1814	5.6821	13.012
0.333	25.1837	-0.5658	88.4902	-0.2476	0.7756	0.4513	24.516	-8.6467	3.4956	29.7782	-20.5893	1.2818	0	29.0054	-2.8975	3.3948	44.6665	-11.0902	3.0894	0	-6.7494	-0.3137	-1.2023	30.0554	-21.7287	8.7486	24.5558	131.5221	5.0121	22.8726	19.8766	-23.1393	-4.5039	42.7086	108.1612	5.6847	13.0132
0.349	25.2	-0.5694	88.4872	-0.2476	0.7756	0.4513	24.5004	-8.6357	3.4957	29.7719	-20.618	1.2831	0	28.9848	-2.9075	3.3904	44.6584	-11.0937	3.0906	0	-6.7655	-0.3133	-1.1938	30.0489	-21.7465	8.7436	24.5659	131.5067	5.02	22.8735	19.8765	-23.1434	-4.4991	42.7096	108.144	5.6874	13.0137
0.366	25.2155	-0.5724	88.4845	-0.2475	0.7757	0.4513	24.4851	-8.6255	3.4969	29.766	-20.6437	1.2835	0	28.9657	-2.9161	3.3868	44.6521	-11.0965	3.0907	0	-6.78	-0.3136	-1.1861	30.0448	-21.7648	8.7404	24.5738	131.493	5.0195	22.8747	19.877	-23.1436	-4.5045	42.7071	108.1319	5.6904	13.0129
0.383	25.2298	-0.5751	88.4824	-0.2475	0.7757	0.4513	24.4704	-8.6162	3.4991	29.7604	-20.6663	1.283	0	28.9482	-2.9236	3.3834	44.647	-11.0988	3.0902	0	-6.7929	-0.3142	-1.1791	30.042	-21.7829	8.7384	24.5801	131.48	5.0142	22.8769	19.8777	-23.1417	-4.5143	42.7027	108.1228	5.6933	13.0116
0.399	25.243	-0.5776	88.4799	-0.2475	0.7757	0.4513	24.4575	-8.6068	3.5011	29.7559	-20.6868	1.2827	0	28.9322	-2.9311	3.3802	44.6421	-11.1013	3.0901	0	-6.8054	-0.3143	-1.1729	30.04	-21.7991	8.7368	24.5872	131.4658	5.0105	22.8831	19.8781	-23.1403	-4.5191	42.7038	108.1156	5.6962	13.0112
0.416	25.2551	-0.5802	88.4771	-0.2474	0.7757	0.4513	24.4473	-8.5967	3.5032	29.7531	-20.7054	1.2826	0	28.9181	-2.9394	3.377	44.6371	-11.1044	3.0906	0	-6.8182	-0.3135	-1.1677	30.0395	-21.8125	8.7361	24.5956	131.4475	5.0114	22.896	19.8774	-23.1405	-4.5131	42.7158	108.1109	5.6989	13.0125
0.433	25.266	-0.5829	88.4743	-0.2474	0.7757	0.4514	24.4388	-8.5865	3.505	29.7514	-20.7219	1.2828	0	28.9056	-2.9478	3.3739	44.6323	-11.1078	3.0915	0	-6.8306	-0.3123	-1.1634	30.0397	-21.8242	8.7359	24.6047	131.4278	5.0139	22.9128	19.8764	-23.1411	-4.5021	42.7333	108.1081	5.7015	13.0148
0.449	25.2763	-0.5854	88.4721	-0.2473	0.7757	0.4514	24.4304	-8.5777	3.5044	29.7495	-20.7367	1.2836	0	28.894	-2.9556	3.3719	44.6279	-11.1112	3.0927	0	-6.8415	-0.3112	-1.1598	30.0383	-21.8357	8.7338	24.6161	131.4128	5.0154	22.928	19.8765	-23.1413	-4.4946	42.7472	108.1046	5.7041	13.0168
0.466	25.2863	-0.588	88.472	-0.2473	0.7758	0.4514	24.421	-8.571	3.4995	29.7471	-20.7498	1.2859	0	28.883	-2.9622	3.3713	44.6239	-11.1148	3.0946	0	-6.8498	-0.3106	-1.1573	30.0337	-21.8476	8.728	24.6309	131.4067	5.0142	22.9393	19.8786	-23.1407	-4.4948	42.7529	108.0984	5.7068	13.0181
0.483	25.2955	-0.5906	88.4727	-0.2472	0.7758	0.4514	24.4116	-8.5656	3.4921	29.7445	-20.7612	1.2889	0	28.8728	-2.9682	3.3717	44.6203	-11.1185	3.0968	0	-6.8566	-0.3101	-1.1555	30.0275	-21.8594	8.7204	24.6479	131.4052	5.012	22.949	19.8818	-23.1398	-4.4985	42.7549	108.0915	5.7095	13.0191
0.499	25.304	-0.5926	88.4722	-0.2472	0.7758	0.4514	24.4035	-8.5601	3.4848	29.7424	-20.7715	1.2914	0	28.8636	-2.974	3.3726	44.617	-11.1218	3.0984	0	-6.8641	-0.3098	-1.1536	30.0219	-21.8706	8.7139	24.6643	131.4016	5.0102	22.9587	19.8845	-23.1391	-4.5013	42.7579	108.0871	5.7121	13.0199
